<?xml version="1.0" encoding="iso-8859-1"?>
<!-- Generator: Adobe Illustrator 19.0.0, SVG Export Plug-In . SVG Version: 6.00 Build 0)  -->
<svg version="1.1" id="Capa_1" xmlns="http://www.w3.org/2000/svg" xmlns:xlink="http://www.w3.org/1999/xlink" x="0px" y="0px"
	 viewBox="0 0 539.077 539.077" style="enable-background:new 0 0 539.077 539.077;" xml:space="preserve">
<g>
	<g>
		<path d="M494.154,449.231H44.923C20.147,449.231,0,429.072,0,404.308V134.769c0-24.776,20.147-44.923,44.923-44.923h449.231
			c24.765,0,44.923,20.147,44.923,44.923v269.538C539.077,429.072,518.919,449.231,494.154,449.231z M44.923,112.308
			c-12.382,0-22.462,10.079-22.462,22.462v269.538c0,12.393,10.079,22.462,22.462,22.462h449.231
			c12.393,0,22.462-10.068,22.462-22.462V134.769c0-12.382-10.068-22.462-22.462-22.462H44.923z M460.462,370.615
			c-1.908,0-3.817-0.483-5.572-1.47l-78.615-44.923c-5.396-3.093-7.26-9.959-4.19-15.333c3.093-5.418,10.002-7.195,15.333-4.19
			l78.615,44.923c5.396,3.093,7.261,9.959,4.19,15.333C468.139,368.575,464.344,370.615,460.462,370.615z M78.626,370.615
			c-3.904,0-7.688-2.04-9.761-5.659c-3.082-5.374-1.206-12.24,4.179-15.333l78.615-44.923c5.374-3.049,12.229-1.184,15.322,4.19
			c3.082,5.374,1.206,12.24-4.179,15.333l-78.615,44.923C82.432,370.133,80.513,370.615,78.626,370.615z M269.538,325.692
			c-2.128,0-4.244-0.592-6.098-1.799L72.517,200.355c-5.21-3.378-6.701-10.32-3.334-15.53c3.378-5.199,10.309-6.701,15.53-3.334
			l184.825,119.59l184.825-119.59c5.155-3.323,12.152-1.886,15.53,3.334c3.356,5.21,1.886,12.152-3.334,15.53L275.636,323.894
			C273.794,325.1,271.666,325.692,269.538,325.692z"/>
	</g>
</g>
<g>
</g>
<g>
</g>
<g>
</g>
<g>
</g>
<g>
</g>
<g>
</g>
<g>
</g>
<g>
</g>
<g>
</g>
<g>
</g>
<g>
</g>
<g>
</g>
<g>
</g>
<g>
</g>
<g>
</g>
</svg>
