<?xml version="1.0" encoding="iso-8859-1"?>
<!-- Generator: Adobe Illustrator 19.0.0, SVG Export Plug-In . SVG Version: 6.00 Build 0)  -->
<svg version="1.1" id="Capa_1" xmlns="http://www.w3.org/2000/svg" xmlns:xlink="http://www.w3.org/1999/xlink" x="0px" y="0px"
	 viewBox="0 0 482.923 482.923" style="enable-background:new 0 0 482.923 482.923;" xml:space="preserve">
<g>
	<g>
		<path d="M454.846,482.923H28.077c-6.208,0-11.231-5.023-11.231-11.231v-42.357c0-33.122,20.97-62.888,52.173-74.031
			l105.058-37.531v-53.149h22.462v61.067c0,4.738-2.983,8.971-7.458,10.573L76.575,376.45
			c-22.286,7.962-37.268,29.218-37.268,52.885v31.126h404.308v-31.126c0-23.668-14.982-44.923-37.268-52.885l-112.505-40.185
			c-4.475-1.601-7.458-5.835-7.458-10.573v-65.279h22.462v57.36l105.047,37.531c31.214,11.143,52.184,40.909,52.184,74.031v42.357
			C466.077,477.9,461.054,482.923,454.846,482.923z"/>
		<path d="M238.654,292c-68.119,0-123.538-65.498-123.538-146S170.534,0,238.654,0c68.108,0,123.538,65.498,123.538,146
			S306.762,292,238.654,292z M238.654,22.462c-55.737,0-101.077,55.419-101.077,123.538s45.34,123.538,101.077,123.538
			S339.731,214.119,339.731,146S294.391,22.462,238.654,22.462z"/>
		<path d="M320.669,148.007c-26.454,0-47.577-11.834-65.52-36.829C235.967,131.325,202.132,146,171.269,146
			c-17.866,0-33.341-3.729-48.685-11.735l10.397-19.917c12.174,6.361,23.986,9.191,38.288,9.191
			c29.382,0,64.248-17.438,74.623-37.323c1.908-3.641,5.637-5.955,9.739-6.032c0.088,0,0.154,0,0.219,0
			c4.036,0,7.743,2.161,9.761,5.659c19.149,33.561,39.33,44.243,71.991,37.893l11.143-1.195l2.325,22.352l-10.178,1.053
			C333.808,147.305,327.096,148.007,320.669,148.007z"/>
	</g>
</g>
<g>
</g>
<g>
</g>
<g>
</g>
<g>
</g>
<g>
</g>
<g>
</g>
<g>
</g>
<g>
</g>
<g>
</g>
<g>
</g>
<g>
</g>
<g>
</g>
<g>
</g>
<g>
</g>
<g>
</g>
</svg>
