<?xml version="1.0" encoding="iso-8859-1"?>
<!-- Generator: Adobe Illustrator 19.0.0, SVG Export Plug-In . SVG Version: 6.00 Build 0)  -->
<svg version="1.1" id="Capa_1" xmlns="http://www.w3.org/2000/svg" xmlns:xlink="http://www.w3.org/1999/xlink" x="0px" y="0px"
	 viewBox="0 0 539.088 539.088" style="enable-background:new 0 0 539.088 539.088;" xml:space="preserve">
<g>
	<g>
		<path d="M438,539.081H11.231C5.023,539.081,0,534.058,0,527.851V56.158c0-6.208,5.023-11.231,11.231-11.231h359.385
			c6.208,0,11.231,5.023,11.231,11.231s-5.023,11.231-11.231,11.231H22.462V516.62h404.308V247.081
			c0-6.208,5.023-11.231,11.231-11.231s11.231,5.023,11.231,11.231v280.769C449.231,534.058,444.208,539.081,438,539.081z"/>
		<path d="M242.986,307.337c-2.906,0-5.78-1.141-7.941-3.29c-3.422-3.422-4.266-8.642-2.106-12.964l31.762-63.579
			c0.537-1.075,1.25-2.062,2.106-2.917L481.234,10.193c8.796-8.796,20.4-12.119,31.762-9.092
			c11.977,3.213,21.782,13.018,24.984,24.995c3.049,11.362-0.263,22.933-9.081,31.74L314.462,272.285
			c-0.855,0.834-1.843,1.557-2.917,2.084l-63.535,31.784C246.408,306.942,244.697,307.337,242.986,307.337z M283.983,239.185
			l-15.903,31.806l31.795-15.892l173.441-173.43l-15.903-15.903L283.983,239.185z M473.294,49.885l15.903,15.903l23.822-23.832
			c3.159-3.159,4.234-6.449,3.268-10.057c-1.141-4.223-4.87-7.962-9.103-9.092c-3.619-0.954-6.91,0.11-10.068,3.268L473.294,49.885z
			"/>
	</g>
</g>
<g>
</g>
<g>
</g>
<g>
</g>
<g>
</g>
<g>
</g>
<g>
</g>
<g>
</g>
<g>
</g>
<g>
</g>
<g>
</g>
<g>
</g>
<g>
</g>
<g>
</g>
<g>
</g>
<g>
</g>
</svg>
